<svg height="512" viewBox="0 0 128 128" width="512" xmlns="http://www.w3.org/2000/svg" data-name="Layer 1"><linearGradient id="a" gradientUnits="userSpaceOnUse" x1="96.8" x2="7.158" y1="107.724" y2="18.083"><stop offset="0" stop-color="#5f69e2"/><stop offset="1" stop-color="#00b5bc"/></linearGradient><path d="M30.75 10.125a1.75 1.75 0 0 1 1.75-1.75h.583a1.75 1.75 0 1 1 0 3.5H32.5a1.75 1.75 0 0 1-1.75-1.75zm55.174 87.5a1.75 1.75 0 0 0-1.75 1.75v15H19.341v-102.5h5.409a1.75 1.75 0 1 0 0-3.5h-7.159a1.75 1.75 0 0 0-1.75 1.75v106a1.75 1.75 0 0 0 1.75 1.75h68.333a1.75 1.75 0 0 0 1.75-1.75v-16.75a1.75 1.75 0 0 0-1.75-1.75zm-38.5-54.5h13.743a1.75 1.75 0 0 0 0-3.5H47.424a1.75 1.75 0 0 0 0 3.5zm-20.75 21.252v-8.5a1.75 1.75 0 0 1 1.75-1.75h8.5a1.75 1.75 0 0 1 1.75 1.75v8.5a1.75 1.75 0 0 1-1.75 1.75h-8.5a1.75 1.75 0 0 1-1.75-1.75zm3.5-1.75h5v-5h-5zm17.25-.75h26a1.75 1.75 0 0 0 0-3.5h-26a1.75 1.75 0 0 0 0 3.5zm-20.75 21.252v-8.5a1.75 1.75 0 0 1 1.75-1.75h8.5a1.75 1.75 0 0 1 1.75 1.75v8.5a1.75 1.75 0 0 1-1.75 1.75h-8.5a1.75 1.75 0 0 1-1.75-1.75zm3.5-1.75h5v-5h-5zm17.25-.75h13.743a1.75 1.75 0 0 0 0-3.5H47.424a1.75 1.75 0 0 0 0 3.5zm-20.75 21.252v-8.5a1.75 1.75 0 0 1 1.75-1.75h8.5a1.75 1.75 0 0 1 1.75 1.75v8.5a1.75 1.75 0 0 1-1.75 1.75h-8.5a1.75 1.75 0 0 1-1.75-1.75zm3.5-1.75h5v-5h-5zm81.1-59.7L87.53 89.241a1.734 1.734 0 0 1-.523.634L74.8 99.03a1.742 1.742 0 0 1-1.05.351c-.052 0-.1-.013-.155-.018a1.718 1.718 0 0 1-.175.018h-26a1.75 1.75 0 0 1 0-3.5h24.545l-.291-13.464a1.747 1.747 0 0 1 .177-.8l12.323-25.33V25.6l-11.25-11.25v8.775h5.125a1.75 1.75 0 0 1 0 3.5h-6.875a1.75 1.75 0 0 1-1.75-1.75v-13H40.5a1.75 1.75 0 1 1 0-3.5h30.674a1.75 1.75 0 0 1 1.237.513l14.75 14.75a1.75 1.75 0 0 1 .513 1.237v24.214l4.154-8.539L95.6 32.8a8.719 8.719 0 1 1 15.68 7.629zm-2.906-5.519a5.22 5.22 0 0 0-9.627-.579l-3 6.177 4.693 2.283a1.75 1.75 0 1 1-1.534 3.145l-4.693-2.283-19.024 39.109.247 11.422 9.139-6.855L108.132 38.9a5.188 5.188 0 0 0 .24-3.99zm-76.931 11.95a1.75 1.75 0 0 0 1.237.513h.117a1.755 1.755 0 0 0 1.275-.686l4.619-6.065A1.75 1.75 0 1 0 35.9 38.5l-3.4 4.471-1.616-1.616a1.75 1.75 0 1 0-2.484 2.474z" fill="url(#a)"/></svg>